<mxfile host="drawio-plugin" modified="2022-11-11T14:02:21.024Z" agent="5.0 (X11; Linux x86_64) AppleWebKit/537.36 (KHTML, like Gecko) Chrome/98.0.4758.102 Safari/537.36" version="15.5.4" etag="w2vGV7esxpnU5Nhi7Wq-" type="embed"><diagram id="u7i-OJqU0yoFTZXdBQHm" name="Página-1"><mxGraphModel dx="881" dy="723" grid="1" gridSize="10" guides="1" tooltips="1" connect="1" arrows="1" fold="1" page="1" pageScale="1" pageWidth="1169" pageHeight="827" math="0" shadow="0"><root><mxCell id="0"/><mxCell id="1" parent="0"/><mxCell id="2" value="" style="outlineConnect=0;dashed=0;verticalLabelPosition=bottom;verticalAlign=top;align=center;html=1;shape=mxgraph.aws3.user;fillColor=#D2D3D3;gradientColor=none;" parent="1" vertex="1"><mxGeometry x="50" y="99" width="45" height="63" as="geometry"/></mxCell><mxCell id="3" value="Aplicação Parceiro" style="swimlane;" parent="1" vertex="1"><mxGeometry x="150" y="20" width="350" height="280" as="geometry"/></mxCell><mxCell id="4" value="" style="strokeColor=#dddddd;shadow=1;strokeWidth=1;rounded=1;absoluteArcSize=1;arcSize=2;" parent="3" vertex="1"><mxGeometry x="200" y="80" width="130" height="60" as="geometry"/></mxCell><mxCell id="5" value="API&amp;nbsp;&lt;br&gt;Contribuintes" style="sketch=0;dashed=0;connectable=0;html=1;fillColor=#5184F3;strokeColor=none;shape=mxgraph.gcp2.hexIcon;prIcon=apigee_sense;part=1;labelPosition=right;verticalLabelPosition=middle;align=left;verticalAlign=middle;spacingLeft=5;fontColor=#999999;fontSize=12;" parent="4" vertex="1"><mxGeometry y="0.5" width="44" height="39" relative="1" as="geometry"><mxPoint x="6" y="-19" as="offset"/></mxGeometry></mxCell><mxCell id="8" value="" style="sketch=0;pointerEvents=1;shadow=0;dashed=0;html=1;labelPosition=center;verticalLabelPosition=bottom;verticalAlign=top;align=center;fillColor=#b1ddf0;shape=mxgraph.mscae.intune.device_os;strokeColor=#10739e;" parent="3" vertex="1"><mxGeometry x="60" y="80" width="60" height="60" as="geometry"/></mxCell><mxCell id="30" value="" style="strokeColor=#dddddd;shadow=1;strokeWidth=1;rounded=1;absoluteArcSize=1;arcSize=2;" parent="3" vertex="1"><mxGeometry x="200" y="190" width="130" height="60" as="geometry"/></mxCell><mxCell id="31" value="API&amp;nbsp;&lt;br&gt;Imóveis" style="sketch=0;dashed=0;connectable=0;html=1;fillColor=#5184F3;strokeColor=none;shape=mxgraph.gcp2.hexIcon;prIcon=apigee_sense;part=1;labelPosition=right;verticalLabelPosition=middle;align=left;verticalAlign=middle;spacingLeft=5;fontColor=#999999;fontSize=12;" parent="30" vertex="1"><mxGeometry y="0.5" width="44" height="39" relative="1" as="geometry"><mxPoint x="6" y="-19" as="offset"/></mxGeometry></mxCell><mxCell id="39" value="" style="endArrow=classic;startArrow=classic;html=1;entryX=0;entryY=0.5;entryDx=0;entryDy=0;" parent="3" source="8" target="30" edge="1"><mxGeometry width="50" height="50" relative="1" as="geometry"><mxPoint x="80" y="210" as="sourcePoint"/><mxPoint x="130" y="160" as="targetPoint"/></mxGeometry></mxCell><mxCell id="40" value="" style="endArrow=classic;startArrow=classic;html=1;entryX=0;entryY=0.5;entryDx=0;entryDy=0;exitX=1;exitY=0.5;exitDx=0;exitDy=0;exitPerimeter=0;" parent="3" source="8" target="4" edge="1"><mxGeometry width="50" height="50" relative="1" as="geometry"><mxPoint x="130" y="147.27272727272725" as="sourcePoint"/><mxPoint x="210" y="220" as="targetPoint"/></mxGeometry></mxCell><mxCell id="11" value="API Produtos" style="swimlane;" parent="1" vertex="1"><mxGeometry x="550" y="20" width="240" height="280" as="geometry"/></mxCell><mxCell id="16" value="" style="strokeColor=#dddddd;shadow=1;strokeWidth=1;rounded=1;absoluteArcSize=1;arcSize=2;" parent="11" vertex="1"><mxGeometry x="60" y="80" width="130" height="60" as="geometry"/></mxCell><mxCell id="17" value="API &lt;br&gt;Contribuintes&lt;br&gt;Tributos" style="sketch=0;dashed=0;connectable=0;html=1;fillColor=#5184F3;strokeColor=none;shape=mxgraph.gcp2.hexIcon;prIcon=apigee_sense;part=1;labelPosition=right;verticalLabelPosition=middle;align=left;verticalAlign=middle;spacingLeft=5;fontColor=#999999;fontSize=12;" parent="16" vertex="1"><mxGeometry y="0.5" width="44" height="39" relative="1" as="geometry"><mxPoint x="5" y="-19.5" as="offset"/></mxGeometry></mxCell><mxCell id="33" value="" style="strokeColor=#dddddd;shadow=1;strokeWidth=1;rounded=1;absoluteArcSize=1;arcSize=2;" parent="11" vertex="1"><mxGeometry x="60" y="190" width="130" height="60" as="geometry"/></mxCell><mxCell id="34" value="API Imóveis&lt;br&gt;Tributos" style="sketch=0;dashed=0;connectable=0;html=1;fillColor=#5184F3;strokeColor=none;shape=mxgraph.gcp2.hexIcon;prIcon=apigee_sense;part=1;labelPosition=right;verticalLabelPosition=middle;align=left;verticalAlign=middle;spacingLeft=5;fontColor=#999999;fontSize=12;" parent="33" vertex="1"><mxGeometry y="0.5" width="44" height="39" relative="1" as="geometry"><mxPoint x="5" y="-19.5" as="offset"/></mxGeometry></mxCell><mxCell id="43" value="" style="endArrow=classic;startArrow=classic;html=1;entryX=0;entryY=0.5;entryDx=0;entryDy=0;exitX=1;exitY=0.5;exitDx=0;exitDy=0;" parent="1" source="4" target="16" edge="1"><mxGeometry width="50" height="50" relative="1" as="geometry"><mxPoint x="280" y="167.27272727272725" as="sourcePoint"/><mxPoint x="360" y="240" as="targetPoint"/></mxGeometry></mxCell><mxCell id="44" value="" style="endArrow=classic;startArrow=classic;html=1;entryX=0;entryY=0.5;entryDx=0;entryDy=0;exitX=1;exitY=0.5;exitDx=0;exitDy=0;" parent="1" source="30" target="33" edge="1"><mxGeometry width="50" height="50" relative="1" as="geometry"><mxPoint x="490" y="140" as="sourcePoint"/><mxPoint x="600" y="139" as="targetPoint"/></mxGeometry></mxCell><mxCell id="49" value="" style="endArrow=classic;startArrow=classic;html=1;entryX=0;entryY=0.5;entryDx=0;entryDy=0;entryPerimeter=0;" parent="1" source="2" target="8" edge="1"><mxGeometry width="50" height="50" relative="1" as="geometry"><mxPoint x="280" y="140" as="sourcePoint"/><mxPoint x="360" y="140" as="targetPoint"/></mxGeometry></mxCell><mxCell id="53" value="Plataforma Betha Interna" style="swimlane;" parent="1" vertex="1"><mxGeometry x="840" y="20" width="240" height="280" as="geometry"/></mxCell><mxCell id="22" value="" style="sketch=0;points=[[0,0,0],[0.25,0,0],[0.5,0,0],[0.75,0,0],[1,0,0],[0,1,0],[0.25,1,0],[0.5,1,0],[0.75,1,0],[1,1,0],[0,0.25,0],[0,0.5,0],[0,0.75,0],[1,0.25,0],[1,0.5,0],[1,0.75,0]];outlineConnect=0;fontColor=#232F3E;gradientColor=#945DF2;gradientDirection=north;fillColor=#5A30B5;strokeColor=#ffffff;dashed=0;verticalLabelPosition=bottom;verticalAlign=top;align=center;html=1;fontSize=12;fontStyle=0;aspect=fixed;shape=mxgraph.aws4.resourceIcon;resIcon=mxgraph.aws4.api_gateway;" parent="53" vertex="1"><mxGeometry x="40" y="60" width="78" height="78" as="geometry"/></mxCell><mxCell id="24" value="" style="aspect=fixed;html=1;points=[];align=center;image;fontSize=12;image=img/lib/azure2/general/Cost_Management_and_Billing.svg;" parent="53" vertex="1"><mxGeometry x="160" y="65" width="68" height="68" as="geometry"/></mxCell><mxCell id="25" style="edgeStyle=none;html=1;" parent="53" source="22" target="24" edge="1"><mxGeometry relative="1" as="geometry"/></mxCell><mxCell id="26" value="" style="strokeColor=#dddddd;shadow=1;strokeWidth=1;rounded=1;absoluteArcSize=1;arcSize=2;" parent="53" vertex="1"><mxGeometry x="14" y="180" width="130" height="60" as="geometry"/></mxCell><mxCell id="27" value="API Dados&lt;br&gt;Tributos" style="sketch=0;dashed=0;connectable=0;html=1;fillColor=#5184F3;strokeColor=none;shape=mxgraph.gcp2.hexIcon;prIcon=apigee_sense;part=1;labelPosition=right;verticalLabelPosition=middle;align=left;verticalAlign=middle;spacingLeft=5;fontColor=#999999;fontSize=12;" parent="26" vertex="1"><mxGeometry y="0.5" width="44" height="39" relative="1" as="geometry"><mxPoint x="5" y="-19.5" as="offset"/></mxGeometry></mxCell><mxCell id="28" style="edgeStyle=none;html=1;" parent="53" source="22" target="26" edge="1"><mxGeometry relative="1" as="geometry"/></mxCell><mxCell id="58" style="edgeStyle=none;html=1;entryX=0;entryY=0.641;entryDx=0;entryDy=0;entryPerimeter=0;" parent="1" source="16" target="22" edge="1"><mxGeometry relative="1" as="geometry"/></mxCell><mxCell id="60" style="edgeStyle=none;html=1;" parent="1" source="33" target="22" edge="1"><mxGeometry relative="1" as="geometry"/></mxCell><mxCell id="61" style="edgeStyle=none;html=1;entryX=1;entryY=0.75;entryDx=0;entryDy=0;" parent="1" source="26" target="11" edge="1"><mxGeometry relative="1" as="geometry"/></mxCell></root></mxGraphModel></diagram></mxfile>